<svg xmlns="http://www.w3.org/2000/svg" xmlns:xlink="http://www.w3.org/1999/xlink" width="1080" zoomAndPan="magnify" viewBox="0 0 810 809.999993" height="1080" preserveAspectRatio="xMidYMid meet" version="1.0"><defs><clipPath id="1948fb2f2f"><path d="M 14.835938 14.835938 L 795.164062 14.835938 L 795.164062 795.164062 L 14.835938 795.164062 Z M 14.835938 14.835938 " clip-rule="nonzero"/></clipPath><clipPath id="87fea3c96a"><path d="M 405 14.835938 C 189.519531 14.835938 14.835938 189.519531 14.835938 405 C 14.835938 620.480469 189.519531 795.164062 405 795.164062 C 620.480469 795.164062 795.164062 620.480469 795.164062 405 C 795.164062 189.519531 620.480469 14.835938 405 14.835938 Z M 405 14.835938 " clip-rule="nonzero"/></clipPath><clipPath id="68539cd2ee"><path d="M 0.835938 0.835938 L 781.164062 0.835938 L 781.164062 781.164062 L 0.835938 781.164062 Z M 0.835938 0.835938 " clip-rule="nonzero"/></clipPath><clipPath id="2da0f28259"><path d="M 391 0.835938 C 175.519531 0.835938 0.835938 175.519531 0.835938 391 C 0.835938 606.480469 175.519531 781.164062 391 781.164062 C 606.480469 781.164062 781.164062 606.480469 781.164062 391 C 781.164062 175.519531 606.480469 0.835938 391 0.835938 Z M 391 0.835938 " clip-rule="nonzero"/></clipPath><clipPath id="74561013ce"><rect x="0" width="782" y="0" height="782"/></clipPath><clipPath id="635d966440"><path d="M 14.835938 14.835938 L 794.917969 14.835938 L 794.917969 794.917969 L 14.835938 794.917969 Z M 14.835938 14.835938 " clip-rule="nonzero"/></clipPath><clipPath id="d639766a66"><path d="M 405 14.835938 C 189.519531 14.835938 14.835938 189.519531 14.835938 405 C 14.835938 620.476562 189.519531 795.160156 405 795.160156 C 620.476562 795.160156 795.160156 620.476562 795.160156 405 C 795.160156 189.519531 620.476562 14.835938 405 14.835938 Z M 405 14.835938 " clip-rule="nonzero"/></clipPath><clipPath id="8b43cf8ecf"><rect x="0" width="810" y="0" height="810"/></clipPath></defs><rect x="-81" width="972" fill="#ffffff" y="-80.999999" height="971.999992" fill-opacity="1"/><rect x="-81" width="972" fill="#ffffff" y="-80.999999" height="971.999992" fill-opacity="1"/><g transform="matrix(1, 0, 0, 1, 0, 0.000000000000039746)"><g clip-path="url(#8b43cf8ecf)"><g clip-path="url(#1948fb2f2f)"><g clip-path="url(#87fea3c96a)"><g transform="matrix(1, 0, 0, 1, 14, 14)"><g clip-path="url(#74561013ce)"><g clip-path="url(#68539cd2ee)"><g clip-path="url(#2da0f28259)"><path fill="#c0d8ff" d="M 0.835938 0.835938 L 781.164062 0.835938 L 781.164062 781.164062 L 0.835938 781.164062 Z M 0.835938 0.835938 " fill-opacity="1" fill-rule="nonzero"/></g></g></g></g></g></g><g clip-path="url(#635d966440)"><g clip-path="url(#d639766a66)"><path stroke-linecap="butt" transform="matrix(1.291524, 0, 0, 1.291524, 14.837257, 14.837246)" fill="none" stroke-linejoin="miter" d="M 302.094939 -0.00101294 C 135.252871 -0.00101294 -0.00102153 135.252879 -0.00102153 302.094948 C -0.00102153 468.937016 135.252871 604.187884 302.094939 604.187884 C 468.937008 604.187884 604.187875 468.937016 604.187875 302.094948 C 604.187875 135.252879 468.937008 -0.00101294 302.094939 -0.00101294 Z M 302.094939 -0.00101294 " stroke="#0065ef" stroke-width="72.007973" stroke-opacity="1" stroke-miterlimit="4"/></g></g><path fill="#0065ef" d="M 557.101562 586.78125 C 566.03125 602.203125 542.589844 615.761719 533.679688 600.347656 L 489.179688 523.277344 L 367.957031 501.683594 C 365.394531 501.234375 363.128906 500.09375 361.320312 498.496094 L 272.890625 428.210938 C 271.246094 426.902344 269.992188 425.289062 269.132812 423.515625 L 200.070312 303.902344 C 190.710938 310.550781 188.183594 320.652344 194.113281 330.910156 L 194.085938 330.921875 L 273.371094 468.25 L 357.6875 535.265625 L 459.121094 553.335938 L 459.113281 553.390625 C 462.136719 553.917969 464.996094 555.472656 467.125 558 L 502.8125 600.472656 C 514.210938 614.027344 493.535156 631.402344 482.144531 617.855469 L 449.660156 579.1875 L 349.640625 561.375 C 347.078125 560.925781 344.816406 559.785156 343.003906 558.183594 L 254.574219 487.898438 C 252.929688 486.59375 251.675781 484.980469 250.816406 483.207031 L 170.710938 344.464844 L 170.691406 344.480469 C 157 320.777344 164.6875 294.289062 186.6875 280.292969 C 165.347656 234.648438 221.964844 194.679688 258.226562 220.445312 C 285.664062 203.398438 320.070312 209.507812 337.507812 239.664062 L 337.527344 239.648438 L 368.4375 293.183594 C 372.9375 293.113281 377.671875 293.691406 382.605469 295.011719 L 551.75 340.335938 C 555.726562 341.394531 558.820312 344.128906 560.46875 347.578125 L 663.230469 525.558594 C 672.09375 540.945312 648.699219 554.449219 639.808594 539.015625 L 539.382812 365.070312 L 375.609375 321.1875 C 357.945312 316.460938 348.402344 331.753906 349.46875 344.863281 L 482.578125 392.34375 C 499.390625 398.34375 490.277344 423.886719 473.46875 417.882812 L 315.851562 360.378906 L 315.871094 360.328125 C 313.273438 359.214844 311.007812 357.285156 309.488281 354.652344 L 249.089844 250.09375 C 234.765625 226.191406 198.796875 247.667969 212.421875 271.273438 L 291.6875 408.558594 L 376.003906 475.574219 L 500.070312 497.675781 L 500.0625 497.699219 C 503.867188 498.363281 507.359375 500.644531 509.449219 504.246094 Z M 275.5 241.757812 L 324.761719 327.074219 C 327.882812 317.175781 333.886719 308.210938 342.269531 301.992188 L 314.105469 253.210938 L 314.132812 253.199219 C 304.933594 238.199219 290.417969 234.394531 275.5 241.757812 Z M 275.5 241.757812 " fill-opacity="1" fill-rule="nonzero"/></g></g></svg>