<svg xmlns="http://www.w3.org/2000/svg" xmlns:xlink="http://www.w3.org/1999/xlink" width="1080" zoomAndPan="magnify" viewBox="0 0 810 809.999993" height="1080" preserveAspectRatio="xMidYMid meet" version="1.0"><defs><clipPath id="95955831c4"><path d="M 15.75 15.75 L 779.75 15.75 L 779.75 779.75 L 15.75 779.75 Z M 15.75 15.75 " clip-rule="nonzero"/></clipPath><clipPath id="86e8172fdc"><path d="M 397.75 15.75 C 186.777344 15.75 15.75 186.777344 15.75 397.75 C 15.75 608.722656 186.777344 779.75 397.75 779.75 C 608.722656 779.75 779.75 608.722656 779.75 397.75 C 779.75 186.777344 608.722656 15.75 397.75 15.75 Z M 397.75 15.75 " clip-rule="nonzero"/></clipPath><clipPath id="36631571e1"><path d="M 0.75 0.75 L 764.75 0.75 L 764.75 764.75 L 0.75 764.75 Z M 0.75 0.75 " clip-rule="nonzero"/></clipPath><clipPath id="7d05476571"><path d="M 382.75 0.75 C 171.777344 0.75 0.75 171.777344 0.75 382.75 C 0.75 593.722656 171.777344 764.75 382.75 764.75 C 593.722656 764.75 764.75 593.722656 764.75 382.75 C 764.75 171.777344 593.722656 0.75 382.75 0.75 Z M 382.75 0.75 " clip-rule="nonzero"/></clipPath><clipPath id="c92afa6bb4"><rect x="0" width="765" y="0" height="765"/></clipPath><clipPath id="7f4f2ae512"><path d="M 15.75 15.75 L 779.746094 15.75 L 779.746094 779.746094 L 15.75 779.746094 Z M 15.75 15.75 " clip-rule="nonzero"/></clipPath><clipPath id="4e6c65cc5d"><path d="M 397.75 15.75 C 186.777344 15.75 15.75 186.777344 15.75 397.75 C 15.75 608.71875 186.777344 779.746094 397.75 779.746094 C 608.71875 779.746094 779.746094 608.71875 779.746094 397.75 C 779.746094 186.777344 608.71875 15.75 397.75 15.75 Z M 397.75 15.75 " clip-rule="nonzero"/></clipPath><clipPath id="2642094545"><path d="M 201.753906 244 L 426 244 L 426 552 L 201.753906 552 Z M 201.753906 244 " clip-rule="nonzero"/></clipPath><clipPath id="0870661b72"><path d="M 504 229.90625 L 593.65625 229.90625 L 593.65625 565.957031 L 504 565.957031 Z M 504 229.90625 " clip-rule="nonzero"/></clipPath><clipPath id="0f650ea364"><rect x="0" width="810" y="0" height="810"/></clipPath></defs><rect x="-81" width="972" fill="#ffffff" y="-80.999999" height="971.999992" fill-opacity="1"/><rect x="-81" width="972" fill="#ffffff" y="-80.999999" height="971.999992" fill-opacity="1"/><g transform="matrix(1, 0, 0, 1, 0, 0.000000000000039746)"><g clip-path="url(#0f650ea364)"><g clip-path="url(#95955831c4)"><g clip-path="url(#86e8172fdc)"><g transform="matrix(1, 0, 0, 1, 15, 15)"><g clip-path="url(#c92afa6bb4)"><g clip-path="url(#36631571e1)"><g clip-path="url(#7d05476571)"><path fill="#c0d8ff" d="M 0.75 0.75 L 764.75 0.75 L 764.75 764.75 L 0.75 764.75 Z M 0.75 0.75 " fill-opacity="1" fill-rule="nonzero"/></g></g></g></g></g></g><g clip-path="url(#7f4f2ae512)"><g clip-path="url(#4e6c65cc5d)"><path stroke-linecap="butt" transform="matrix(0.930887, 0, 0, 0.930887, 15.750459, 15.750475)" fill="none" stroke-linejoin="miter" d="M 410.360737 -0.000510489 C 183.724615 -0.000510489 -0.000492764 183.724597 -0.000492764 410.360719 C -0.000492764 636.992645 183.724615 820.717752 410.360737 820.717752 C 636.992663 820.717752 820.71777 636.992645 820.71777 410.360719 C 820.71777 183.724597 636.992663 -0.000510489 410.360737 -0.000510489 Z M 410.360737 -0.000510489 " stroke="#0065ef" stroke-width="161.136597" stroke-opacity="1" stroke-miterlimit="4"/></g></g><g clip-path="url(#2642094545)"><path fill="#0065ef" d="M 425.722656 398.042969 C 425.722656 364.277344 401.652344 336.023438 369.773438 329.519531 L 369.773438 258.171875 C 369.773438 252.523438 366.363281 247.417969 361.144531 245.25 C 355.898438 243.066406 349.898438 244.269531 345.898438 248.285156 L 266.074219 328.109375 L 215.917969 328.109375 C 208.199219 328.109375 201.929688 334.375 201.929688 342.09375 L 201.929688 453.992188 C 201.929688 461.710938 208.199219 467.976562 215.917969 467.976562 L 266.074219 467.976562 L 345.898438 547.800781 C 348.570312 550.472656 352.152344 551.898438 355.789062 551.898438 C 357.59375 551.898438 359.410156 551.550781 361.144531 550.835938 C 366.363281 548.667969 369.773438 543.5625 369.773438 537.914062 L 369.773438 466.566406 C 401.652344 460.0625 425.722656 431.808594 425.722656 398.042969 Z M 341.800781 504.132812 L 281.753906 444.085938 C 279.140625 441.472656 275.574219 440.003906 271.867188 440.003906 L 229.90625 440.003906 L 229.90625 356.082031 L 271.867188 356.082031 C 275.574219 356.082031 279.140625 354.613281 281.753906 351.984375 L 341.800781 291.9375 Z M 369.773438 437.414062 L 369.773438 358.65625 C 386.011719 364.445312 397.75 379.832031 397.75 398.042969 C 397.75 416.253906 386.011719 431.625 369.773438 437.414062 Z M 369.773438 437.414062 " fill-opacity="1" fill-rule="nonzero"/></g><g clip-path="url(#0870661b72)"><path fill="#0065ef" d="M 523.925781 229.90625 L 504.148438 249.683594 C 543.757812 289.308594 565.59375 341.996094 565.59375 398.042969 C 565.59375 454.089844 543.757812 506.761719 504.132812 546.386719 L 523.910156 566.164062 C 568.824219 521.269531 593.566406 461.558594 593.566406 398.042969 C 593.566406 334.527344 568.824219 274.804688 523.925781 229.90625 Z M 523.925781 229.90625 " fill-opacity="1" fill-rule="nonzero"/></g><path fill="#0065ef" d="M 484.355469 269.460938 L 464.578125 289.238281 C 493.644531 318.304688 509.644531 356.949219 509.644531 398.042969 C 509.644531 439.136719 493.644531 477.769531 464.578125 506.832031 L 484.355469 526.609375 C 518.707031 492.257812 537.617188 446.605469 537.617188 398.042969 C 537.617188 349.480469 518.707031 303.8125 484.355469 269.460938 Z M 484.355469 269.460938 " fill-opacity="1" fill-rule="nonzero"/><path fill="#0065ef" d="M 444.800781 309.03125 L 425.023438 328.808594 C 443.515625 347.296875 453.695312 371.886719 453.695312 398.042969 C 453.695312 424.199219 443.515625 448.773438 425.023438 467.277344 L 444.800781 487.054688 C 468.578125 463.277344 481.671875 431.667969 481.671875 398.042969 C 481.671875 364.417969 468.578125 332.792969 444.800781 309.03125 Z M 444.800781 309.03125 " fill-opacity="1" fill-rule="nonzero"/></g></g></svg>