<svg xmlns="http://www.w3.org/2000/svg" xmlns:xlink="http://www.w3.org/1999/xlink" width="1080" zoomAndPan="magnify" viewBox="0 0 810 809.999993" height="1080" preserveAspectRatio="xMidYMid meet" version="1.0"><defs><clipPath id="27ca05c920"><path d="M 19.261719 40.5 L 748.261719 40.5 L 748.261719 769.5 L 19.261719 769.5 Z M 19.261719 40.5 " clip-rule="nonzero"/></clipPath><clipPath id="90f93315e4"><path d="M 383.761719 40.5 C 182.453125 40.5 19.261719 203.691406 19.261719 405 C 19.261719 606.308594 182.453125 769.5 383.761719 769.5 C 585.070312 769.5 748.261719 606.308594 748.261719 405 C 748.261719 203.691406 585.070312 40.5 383.761719 40.5 Z M 383.761719 40.5 " clip-rule="nonzero"/></clipPath><clipPath id="6c3b20d538"><path d="M 0.261719 0.5 L 729.261719 0.5 L 729.261719 729.5 L 0.261719 729.5 Z M 0.261719 0.5 " clip-rule="nonzero"/></clipPath><clipPath id="3dd03c8d48"><path d="M 364.761719 0.5 C 163.453125 0.5 0.261719 163.691406 0.261719 365 C 0.261719 566.308594 163.453125 729.5 364.761719 729.5 C 566.070312 729.5 729.261719 566.308594 729.261719 365 C 729.261719 163.691406 566.070312 0.5 364.761719 0.5 Z M 364.761719 0.5 " clip-rule="nonzero"/></clipPath><clipPath id="ea56bb41ae"><rect x="0" width="730" y="0" height="730"/></clipPath><clipPath id="412daaf73b"><path d="M 19.261719 40.5 L 748.257812 40.5 L 748.257812 769.496094 L 19.261719 769.496094 Z M 19.261719 40.5 " clip-rule="nonzero"/></clipPath><clipPath id="315b832ff0"><path d="M 383.761719 40.5 C 182.453125 40.5 19.261719 203.691406 19.261719 404.996094 C 19.261719 606.304688 182.453125 769.496094 383.761719 769.496094 C 585.066406 769.496094 748.257812 606.304688 748.257812 404.996094 C 748.257812 203.691406 585.066406 40.5 383.761719 40.5 Z M 383.761719 40.5 " clip-rule="nonzero"/></clipPath><clipPath id="a8fbbad5c5"><path d="M 196.742188 258 L 411 258 L 411 553 L 196.742188 553 Z M 196.742188 258 " clip-rule="nonzero"/></clipPath><clipPath id="765f4477f9"><path d="M 485 244.84375 L 570.691406 244.84375 L 570.691406 565.5 L 485 565.5 Z M 485 244.84375 " clip-rule="nonzero"/></clipPath><clipPath id="612b59f650"><rect x="0" width="810" y="0" height="810"/></clipPath></defs><rect x="-81" width="972" fill="#ffffff" y="-80.999999" height="971.999992" fill-opacity="1"/><rect x="-81" width="972" fill="#ffffff" y="-80.999999" height="971.999992" fill-opacity="1"/><g transform="matrix(1, 0, 0, 1, 0, 0.000000000000039746)"><g clip-path="url(#612b59f650)"><g clip-path="url(#27ca05c920)"><g clip-path="url(#90f93315e4)"><g transform="matrix(1, 0, 0, 1, 19, 40)"><g clip-path="url(#ea56bb41ae)"><g clip-path="url(#6c3b20d538)"><g clip-path="url(#3dd03c8d48)"><path fill="#c0d8ff" d="M 0.261719 0.5 L 729.261719 0.5 L 729.261719 729.5 L 0.261719 729.5 Z M 0.261719 0.5 " fill-opacity="1" fill-rule="nonzero"/></g></g></g></g></g></g><g clip-path="url(#412daaf73b)"><g clip-path="url(#315b832ff0)"><path stroke-linecap="butt" transform="matrix(0.888241, 0, 0, 0.888241, 19.262421, 40.500018)" fill="none" stroke-linejoin="miter" d="M 410.360984 -0.0000202226 C 183.72353 -0.0000202226 -0.00079089 183.724301 -0.00079089 410.357357 C -0.00079089 636.99481 183.72353 820.719131 410.360984 820.719131 C 636.994039 820.719131 820.71836 636.99481 820.71836 410.357357 C 820.71836 183.724301 636.994039 -0.0000202226 410.360984 -0.0000202226 Z M 410.360984 -0.0000202226 " stroke="#0065ef" stroke-width="157.052032" stroke-opacity="1" stroke-miterlimit="4"/></g></g><g clip-path="url(#a8fbbad5c5)"><path fill="#0065ef" d="M 410.453125 405.277344 C 410.453125 373.0625 387.484375 346.101562 357.066406 339.894531 L 357.066406 271.816406 C 357.066406 266.425781 353.8125 261.554688 348.832031 259.484375 C 343.828125 257.402344 338.101562 258.550781 334.285156 262.382812 L 258.121094 338.546875 L 210.261719 338.546875 C 202.894531 338.546875 196.914062 344.527344 196.914062 351.894531 L 196.914062 458.664062 C 196.914062 466.03125 202.894531 472.007812 210.261719 472.007812 L 258.121094 472.007812 L 334.285156 548.175781 C 336.835938 550.726562 340.25 552.085938 343.722656 552.085938 C 345.441406 552.085938 347.179688 551.753906 348.832031 551.070312 C 353.8125 549.003906 357.066406 544.132812 357.066406 538.738281 L 357.066406 470.660156 C 387.484375 464.457031 410.453125 437.496094 410.453125 405.277344 Z M 330.375 506.507812 L 273.082031 449.214844 C 270.585938 446.71875 267.179688 445.316406 263.644531 445.316406 L 223.605469 445.316406 L 223.605469 365.238281 L 263.644531 365.238281 C 267.179688 365.238281 270.585938 363.839844 273.082031 361.328125 L 330.375 304.035156 Z M 357.066406 442.847656 L 357.066406 367.695312 C 372.5625 373.222656 383.761719 387.902344 383.761719 405.277344 C 383.761719 422.65625 372.5625 437.324219 357.066406 442.847656 Z M 357.066406 442.847656 " fill-opacity="1" fill-rule="nonzero"/></g><g clip-path="url(#765f4477f9)"><path fill="#0065ef" d="M 504.15625 244.84375 L 485.285156 263.714844 C 523.082031 301.523438 543.914062 351.800781 543.914062 405.277344 C 543.914062 458.757812 523.082031 509.019531 485.269531 546.828125 L 504.140625 565.699219 C 546.996094 522.859375 570.605469 465.882812 570.605469 405.277344 C 570.605469 344.671875 546.996094 287.683594 504.15625 244.84375 Z M 504.15625 244.84375 " fill-opacity="1" fill-rule="nonzero"/></g><path fill="#0065ef" d="M 466.398438 282.585938 L 447.527344 301.457031 C 475.261719 329.191406 490.53125 366.066406 490.53125 405.277344 C 490.53125 444.488281 475.261719 481.351562 447.527344 509.085938 L 466.398438 527.957031 C 499.179688 495.179688 517.222656 451.617188 517.222656 405.277344 C 517.222656 358.941406 499.179688 315.367188 466.398438 282.585938 Z M 466.398438 282.585938 " fill-opacity="1" fill-rule="nonzero"/><path fill="#0065ef" d="M 428.65625 320.34375 L 409.785156 339.214844 C 427.429688 356.859375 437.144531 380.320312 437.144531 405.277344 C 437.144531 430.234375 427.429688 453.683594 409.785156 471.34375 L 428.65625 490.214844 C 451.34375 467.523438 463.835938 437.363281 463.835938 405.277344 C 463.835938 373.195312 451.34375 343.019531 428.65625 320.34375 Z M 428.65625 320.34375 " fill-opacity="1" fill-rule="nonzero"/></g></g></svg>