<svg xmlns="http://www.w3.org/2000/svg" xmlns:xlink="http://www.w3.org/1999/xlink" width="1080" zoomAndPan="magnify" viewBox="0 0 810 809.999993" height="1080" preserveAspectRatio="xMidYMid meet" version="1.0"><defs><clipPath id="1d5c23a7a1"><path d="M 15.75 15.75 L 779.75 15.75 L 779.75 779.75 L 15.75 779.75 Z M 15.75 15.75 " clip-rule="nonzero"/></clipPath><clipPath id="3564b9fdb4"><path d="M 397.75 15.75 C 186.777344 15.75 15.75 186.777344 15.75 397.75 C 15.75 608.722656 186.777344 779.75 397.75 779.75 C 608.722656 779.75 779.75 608.722656 779.75 397.75 C 779.75 186.777344 608.722656 15.75 397.75 15.75 Z M 397.75 15.75 " clip-rule="nonzero"/></clipPath><clipPath id="3513c16679"><path d="M 0.75 0.75 L 764.75 0.75 L 764.75 764.75 L 0.75 764.75 Z M 0.75 0.75 " clip-rule="nonzero"/></clipPath><clipPath id="d1493e4939"><path d="M 382.75 0.75 C 171.777344 0.75 0.75 171.777344 0.75 382.75 C 0.75 593.722656 171.777344 764.75 382.75 764.75 C 593.722656 764.75 764.75 593.722656 764.75 382.75 C 764.75 171.777344 593.722656 0.75 382.75 0.75 Z M 382.75 0.75 " clip-rule="nonzero"/></clipPath><clipPath id="1822324f9e"><rect x="0" width="765" y="0" height="765"/></clipPath><clipPath id="c065cef748"><path d="M 15.75 15.75 L 779.742188 15.75 L 779.742188 779.742188 L 15.75 779.742188 Z M 15.75 15.75 " clip-rule="nonzero"/></clipPath><clipPath id="b3538c42d9"><path d="M 397.746094 15.75 C 186.777344 15.75 15.75 186.777344 15.75 397.746094 C 15.75 608.71875 186.777344 779.742188 397.746094 779.742188 C 608.71875 779.742188 779.742188 608.71875 779.742188 397.746094 C 779.742188 186.777344 608.71875 15.75 397.746094 15.75 Z M 397.746094 15.75 " clip-rule="nonzero"/></clipPath><clipPath id="d4d4d2305b"><path d="M 156.863281 156.863281 L 638.363281 156.863281 L 638.363281 638.363281 L 156.863281 638.363281 Z M 156.863281 156.863281 " clip-rule="nonzero"/></clipPath></defs><rect x="-81" width="972" fill="#ffffff" y="-80.999999" height="971.999992" fill-opacity="1"/><rect x="-81" width="972" fill="#ffffff" y="-80.999999" height="971.999992" fill-opacity="1"/><g clip-path="url(#1d5c23a7a1)"><g clip-path="url(#3564b9fdb4)"><g transform="matrix(1, 0, 0, 1, 15, 15)"><g clip-path="url(#1822324f9e)"><g clip-path="url(#3513c16679)"><g clip-path="url(#d1493e4939)"><path fill="#c0d8ff" d="M 0.75 0.75 L 764.75 0.75 L 764.75 764.75 L 0.75 764.75 Z M 0.75 0.75 " fill-opacity="1" fill-rule="nonzero"/></g></g></g></g></g></g><g clip-path="url(#c065cef748)"><g clip-path="url(#b3538c42d9)"><path stroke-linecap="butt" transform="matrix(0.75, 0, 0, 0.75, 15.750459, 15.750488)" fill="none" stroke-linejoin="miter" d="M 509.327506 -0.00065057 C 228.035844 -0.00065057 -0.00061161 228.035805 -0.00061161 509.327467 C -0.00061161 790.624339 228.035844 1018.655585 509.327506 1018.655585 C 790.624378 1018.655585 1018.655624 790.624339 1018.655624 509.327467 C 1018.655624 228.035805 790.624378 -0.00065057 509.327506 -0.00065057 Z M 509.327506 -0.00065057 " stroke="#0065ef" stroke-width="200" stroke-opacity="1" stroke-miterlimit="4"/></g></g><g clip-path="url(#d4d4d2305b)"><path fill="#0065ef" d="M 518.1875 397.746094 C 518.1875 350.507812 490.890625 309.691406 451.277344 290.019531 L 451.277344 349.167969 L 516.984375 414.875 C 517.789062 409.257812 518.1875 403.5 518.1875 397.746094 Z M 585.101562 397.746094 C 585.101562 422.90625 579.613281 446.59375 570.648438 468.40625 L 611.199219 508.957031 C 628.59375 475.632812 638.632812 437.894531 638.632812 397.746094 C 638.632812 283.191406 558.46875 187.375 451.277344 163.019531 L 451.277344 218.289062 C 528.628906 241.304688 585.101562 312.902344 585.101562 397.746094 Z M 190.988281 156.863281 L 156.863281 190.988281 L 283.328125 317.453125 L 156.863281 317.453125 L 156.863281 478.042969 L 263.921875 478.042969 L 397.746094 611.867188 L 397.746094 431.871094 L 511.632812 545.757812 C 493.699219 559.542969 473.492188 570.648438 451.277344 577.339844 L 451.277344 632.609375 C 488.078125 624.179688 521.667969 607.316406 549.90625 584.164062 L 604.507812 638.632812 L 638.632812 604.507812 Z M 397.746094 183.628906 L 341.808594 239.566406 L 397.746094 295.503906 Z M 397.746094 183.628906 " fill-opacity="1" fill-rule="nonzero"/></g></svg>