<svg xmlns="http://www.w3.org/2000/svg" xmlns:xlink="http://www.w3.org/1999/xlink" width="1080" zoomAndPan="magnify" viewBox="0 0 810 809.999993" height="1080" preserveAspectRatio="xMidYMid meet" version="1.0"><defs><clipPath id="125dd2afbc"><path d="M 15.75 15.75 L 779.75 15.75 L 779.75 779.75 L 15.75 779.75 Z M 15.75 15.75 " clip-rule="nonzero"/></clipPath><clipPath id="66204dd600"><path d="M 397.75 15.75 C 186.777344 15.75 15.75 186.777344 15.75 397.75 C 15.75 608.722656 186.777344 779.75 397.75 779.75 C 608.722656 779.75 779.75 608.722656 779.75 397.75 C 779.75 186.777344 608.722656 15.75 397.75 15.75 Z M 397.75 15.75 " clip-rule="nonzero"/></clipPath><clipPath id="cbba256d6d"><path d="M 0.75 0.75 L 764.75 0.75 L 764.75 764.75 L 0.75 764.75 Z M 0.75 0.75 " clip-rule="nonzero"/></clipPath><clipPath id="edbf2d2ba4"><path d="M 382.75 0.75 C 171.777344 0.75 0.75 171.777344 0.75 382.75 C 0.75 593.722656 171.777344 764.75 382.75 764.75 C 593.722656 764.75 764.75 593.722656 764.75 382.75 C 764.75 171.777344 593.722656 0.75 382.75 0.75 Z M 382.75 0.75 " clip-rule="nonzero"/></clipPath><clipPath id="ccba8967d5"><rect x="0" width="765" y="0" height="765"/></clipPath><clipPath id="a95fa27405"><path d="M 15.75 15.75 L 779.742188 15.75 L 779.742188 779.742188 L 15.75 779.742188 Z M 15.75 15.75 " clip-rule="nonzero"/></clipPath><clipPath id="8a72f2427b"><path d="M 397.746094 15.75 C 186.777344 15.75 15.75 186.777344 15.75 397.746094 C 15.75 608.71875 186.777344 779.742188 397.746094 779.742188 C 608.71875 779.742188 779.742188 608.71875 779.742188 397.746094 C 779.742188 186.777344 608.71875 15.75 397.746094 15.75 Z M 397.746094 15.75 " clip-rule="nonzero"/></clipPath><clipPath id="8dbcaa2dc0"><path d="M 544 178.347656 L 661 178.347656 L 661 617.097656 L 544 617.097656 Z M 544 178.347656 " clip-rule="nonzero"/></clipPath></defs><rect x="-81" width="972" fill="#ffffff" y="-80.999999" height="971.999992" fill-opacity="1"/><rect x="-81" width="972" fill="#ffffff" y="-80.999999" height="971.999992" fill-opacity="1"/><g clip-path="url(#125dd2afbc)"><g clip-path="url(#66204dd600)"><g transform="matrix(1, 0, 0, 1, 15, 15)"><g clip-path="url(#ccba8967d5)"><g clip-path="url(#cbba256d6d)"><g clip-path="url(#edbf2d2ba4)"><path fill="#c0d8ff" d="M 0.75 0.75 L 764.75 0.75 L 764.75 764.75 L 0.75 764.75 Z M 0.75 0.75 " fill-opacity="1" fill-rule="nonzero"/></g></g></g></g></g></g><g clip-path="url(#a95fa27405)"><g clip-path="url(#8a72f2427b)"><path stroke-linecap="butt" transform="matrix(0.75, 0, 0, 0.75, 15.750459, 15.750475)" fill="none" stroke-linejoin="miter" d="M 509.327506 -0.00063361 C 228.035844 -0.00063361 -0.00061161 228.035822 -0.00061161 509.327484 C -0.00061161 790.624356 228.035844 1018.655602 509.327506 1018.655602 C 790.624378 1018.655602 1018.655624 790.624356 1018.655624 509.327484 C 1018.655624 228.035822 790.624378 -0.00063361 509.327506 -0.00063361 Z M 509.327506 -0.00063361 " stroke="#0065ef" stroke-width="200" stroke-opacity="1" stroke-miterlimit="4"/></g></g><path fill="#0065ef" d="M 441.5625 398.128906 C 441.5625 353.992188 410.097656 317.0625 368.429688 308.558594 L 368.429688 215.296875 C 368.429688 207.910156 363.96875 201.238281 357.148438 198.402344 C 350.292969 195.550781 342.449219 197.125 337.222656 202.371094 L 232.878906 306.714844 L 167.316406 306.714844 C 157.222656 306.714844 149.03125 314.90625 149.03125 324.996094 L 149.03125 471.261719 C 149.03125 481.355469 157.222656 489.546875 167.316406 489.546875 L 232.878906 489.546875 L 337.222656 593.886719 C 340.714844 597.378906 345.394531 599.246094 350.148438 599.246094 C 352.507812 599.246094 354.882812 598.789062 357.148438 597.855469 C 363.96875 595.023438 368.429688 588.347656 368.429688 580.960938 L 368.429688 487.699219 C 410.097656 479.199219 441.5625 442.265625 441.5625 398.128906 Z M 331.863281 536.808594 L 253.375 458.316406 C 249.957031 454.898438 245.292969 452.980469 240.449219 452.980469 L 185.597656 452.980469 L 185.597656 343.28125 L 240.449219 343.28125 C 245.292969 343.28125 249.957031 341.359375 253.375 337.921875 L 331.863281 259.433594 Z M 368.429688 449.597656 L 368.429688 346.644531 C 389.65625 354.214844 404.996094 374.324219 404.996094 398.128906 C 404.996094 421.933594 389.65625 442.027344 368.429688 449.597656 Z M 368.429688 449.597656 " fill-opacity="1" fill-rule="nonzero"/><g clip-path="url(#8dbcaa2dc0)"><path fill="#0065ef" d="M 569.929688 178.347656 L 544.078125 204.199219 C 595.855469 255.996094 624.394531 324.867188 624.394531 398.128906 C 624.394531 471.390625 595.855469 540.246094 544.058594 592.042969 L 569.910156 617.894531 C 628.621094 559.203125 660.960938 481.152344 660.960938 398.128906 C 660.960938 315.105469 628.621094 237.035156 569.929688 178.347656 Z M 569.929688 178.347656 " fill-opacity="1" fill-rule="nonzero"/></g><path fill="#0065ef" d="M 518.207031 230.050781 L 492.355469 255.90625 C 530.347656 293.898438 551.261719 344.414062 551.261719 398.128906 C 551.261719 451.847656 530.347656 502.34375 492.355469 540.335938 L 518.207031 566.1875 C 563.109375 521.285156 587.828125 461.609375 587.828125 398.128906 C 587.828125 334.652344 563.109375 274.957031 518.207031 230.050781 Z M 518.207031 230.050781 " fill-opacity="1" fill-rule="nonzero"/><path fill="#0065ef" d="M 466.503906 281.777344 L 440.648438 307.628906 C 464.820312 331.796875 478.128906 363.941406 478.128906 398.128906 C 478.128906 432.320312 464.820312 464.441406 440.648438 488.632812 L 466.503906 514.484375 C 497.582031 483.402344 514.695312 442.082031 514.695312 398.128906 C 514.695312 354.175781 497.582031 312.839844 466.503906 281.777344 Z M 466.503906 281.777344 " fill-opacity="1" fill-rule="nonzero"/></svg>